<svg width="162" height="166" viewBox="0 0 162 166" fill="none" xmlns="http://www.w3.org/2000/svg">
<path d="M143.187 165.81C142.818 165.292 142.23 163.705 142.112 162.907C142.073 162.647 141.975 162.022 141.888 161.519C141.588 159.709 141.549 158.579 141.742 157.166C141.861 156.293 142.306 154.269 142.655 153.015C143.348 150.525 143.614 149.726 145.004 145.937C146.104 142.937 146.712 140.804 146.878 139.364C146.916 139.015 146.914 139 146.678 138.741C146.407 138.44 145.521 137.684 145.047 137.349C142.75 135.72 139.065 134.508 133.668 133.607C131.863 133.306 130.253 133.084 125.613 132.496C119.704 131.747 117.061 131.336 114.49 130.764C110.186 129.807 107.313 128.542 105.735 126.909C105.154 126.308 105.05 126.172 104.698 125.559C104.528 125.264 104.256 124.834 104.09 124.604C103.231 123.41 102.785 122.168 102.586 120.418C102.547 120.071 102.505 119.771 102.493 119.751C102.493 119.73 102.398 119.291 102.305 118.773C101.724 115.477 102.305 112.258 104.103 108.805C106.152 104.869 109.394 100.603 116.755 92.1542C122.088 86.0335 123.593 84.2595 125.498 81.8536C126.275 80.8717 127.497 79.227 127.971 78.5264L128.27 78.0838L128.011 78.1016C122.392 78.4871 112.111 82.0536 98.7715 88.2446C91.9771 91.3979 86.2577 94.2938 73.2332 101.175C60.0196 108.157 54.9957 110.584 51.5754 111.636C50.3379 112.017 49.6616 112.143 48.8315 112.148C47.9957 112.154 47.4585 112.017 47.1552 111.72C47.0478 111.614 46.8464 111.307 46.7113 111.039C46.5771 110.77 46.3841 110.457 46.2839 110.343C45.7473 109.73 45.571 109.278 45.4278 108.147C45.3533 107.545 45.2252 106.779 45.0397 105.813C45.0099 105.726 44.9918 105.343 44.9709 104.961C44.9291 104.195 45.0872 103.058 45.3354 102.317C45.772 101.02 47.1739 98.8859 49.4629 96.0341C51.716 93.2271 56.0193 88.4819 60.4767 83.8897C61.8103 82.5158 68.6102 75.7227 70.1714 74.2044C72.214 72.2182 75.5661 69.0011 75.8405 68.7638C75.9151 68.6976 76.2502 68.3834 76.5818 68.0652C77.4811 67.2025 79.0204 65.7583 80.9296 63.9854C81.3595 63.5863 81.7424 63.2304 81.7809 63.1942C81.8197 63.1582 82.4188 62.607 83.1132 61.9696C83.8076 61.3321 84.5479 60.6519 84.7578 60.458C85.6061 59.6751 86.4521 58.9006 86.5776 58.7918C86.7357 58.6553 87.7355 57.7496 87.879 57.6135C87.9625 57.5349 88.914 56.6781 90.0519 55.6579C90.1862 55.5366 90.3441 55.3923 90.3989 55.3379C90.5063 55.2333 93.2153 52.8311 94.9128 51.3363C95.4643 50.8505 96.0041 50.374 96.1121 50.2772C96.3746 50.0414 95.3307 50.6786 89.3321 54.4145C80.3114 60.0325 67.142 68.452 57.7332 74.6164C57.2124 74.9577 53.9875 77.0722 50.5672 79.3154C40.1362 86.1563 37.0051 88.192 33.3632 90.5002C32.9811 90.7422 32.4127 91.1029 32.1001 91.3017C31.7878 91.5005 30.8788 92.0683 30.0801 92.5635C29.2813 93.0587 28.4147 93.5977 28.1543 93.7612C27.3161 94.2874 24.1176 96.1838 22.9141 96.8682C20.9395 97.9909 20.0476 98.4681 18.1789 99.401C14.5238 101.226 12.5256 101.937 10.8502 102.01C10.1471 102.041 10.0084 102.028 9.6457 101.909C9.15176 101.744 8.95054 101.547 8.59708 100.881C8.45689 100.614 8.2218 100.247 8.07714 100.064C7.56291 99.4143 7.40968 98.9623 7.28739 97.7376C7.25756 97.5119 7.21898 97.1997 7.18617 97.0435C6.81183 95.3323 6.75609 94.1149 6.99829 92.9239C7.23393 91.7674 7.64018 90.8909 8.67609 89.3153C12.0016 84.2581 20.6811 74.903 31.4079 64.8136C31.7205 64.5198 32.1749 64.0921 32.418 63.8635C32.6626 63.6349 33.2435 63.0935 33.7124 62.6601C34.181 62.2267 34.5788 61.8567 34.5961 61.838C34.6259 61.8201 34.8407 61.6087 35.1011 61.3699C35.3606 61.1312 35.7169 60.8047 35.8905 60.6446C36.7534 59.8493 37.1468 59.4882 37.7496 58.9384C38.1114 58.6088 38.453 58.2967 38.5087 58.2446C38.5654 58.1925 38.8934 57.8943 39.2391 57.5821C39.5851 57.2698 39.882 56.9994 39.8993 56.9812C39.9291 56.9633 40.3572 56.5658 40.878 56.0987C41.3988 55.6316 41.856 55.2208 41.8938 55.1857C41.9654 55.1174 42.8117 54.3653 42.9931 54.207C43.0527 54.1548 43.3085 53.9276 43.5614 53.7021C43.815 53.4765 44.0698 53.2496 44.1294 53.1975C44.1891 53.1453 44.4464 52.9183 44.7015 52.6929C46.0207 51.5259 46.4159 51.1777 46.8144 50.8317C47.053 50.6233 47.4076 50.3143 47.5997 50.1446C48.403 49.435 49.9858 48.0655 50.5949 47.5532C50.8424 47.346 51.0715 47.1455 51.1061 47.1076C51.1419 47.0698 51.3536 46.8844 51.5794 46.696C51.8061 46.5076 52.0041 46.3389 52.0214 46.3212C52.0632 46.2774 53.7306 44.8557 54.1995 44.4627C54.4083 44.2881 54.5926 44.1299 54.6099 44.1113C54.6397 44.0934 54.9113 43.8521 55.2412 43.5766C55.5711 43.3012 55.8553 43.0591 55.8726 43.0391C55.9024 43.0182 56.3445 42.6363 56.8826 42.1886C57.421 41.7409 57.8757 41.3568 57.893 41.335C57.9228 41.3142 58.6064 40.7306 59.4397 40.04C61.0066 38.7414 61.2075 38.5739 61.3265 38.4651C61.3653 38.4297 61.538 38.2878 61.7125 38.1497C61.8855 38.0117 62.0425 37.8823 62.0598 37.8621C62.0897 37.8412 62.6027 37.4061 63.2279 36.8935C63.8528 36.381 64.4211 35.9148 64.4906 35.8575C64.5592 35.8003 64.759 35.6401 64.9308 35.5013C65.1038 35.3624 65.3021 35.2013 65.3725 35.1429C65.8062 34.784 68.1458 32.8822 68.3465 32.7255C68.4807 32.6214 68.9027 32.2801 69.2863 31.967C69.6695 31.6539 70.5301 30.9616 71.1985 30.4286C71.867 29.8955 72.4139 29.4479 72.4139 29.434C72.4139 29.4003 72.5449 29.3282 69.0802 31.2547C57.8546 37.4943 50.0662 41.9441 33.2704 51.7136C24.2096 56.9838 19.6632 59.5684 16.066 61.4938C14.4317 62.3686 11.2463 63.9575 10.2578 64.3911C6.73483 65.936 3.76947 66.4516 2.40546 65.7563C2.09615 65.5987 1.81361 65.2752 1.57857 64.8095C1.47716 64.6062 1.25169 64.2549 1.08048 64.0287C0.690034 63.5134 0.516181 63.0546 0.407609 62.2506C0.359885 61.9036 0.2495 61.1959 0.160017 60.6779C-0.209248 58.5322 0.0377635 57.1632 1.14019 55.215C2.18058 53.3786 3.86992 51.0183 6.45359 47.79C10.8642 42.279 16.663 35.8073 29.732 21.8113C36.8211 14.2193 38.467 12.6722 40.1319 12.0351C40.6133 11.8509 40.7619 11.8198 41.0047 11.8532C41.1658 11.874 41.3549 11.94 41.4256 11.9973C41.5449 12.0944 41.5478 12.1155 41.4613 12.3238C41.4106 12.4463 41.1896 12.7007 40.9734 12.889C40.5564 13.2511 39.6816 14.2772 37.3742 17.1113C34.7717 20.3079 31.1737 24.6388 26.3938 30.3283C16.9907 41.5206 11.7404 48.3443 8.90766 53.0551C8.18166 54.2626 7.27867 55.9104 7.3431 55.9104C7.43556 55.9104 10.9894 54.1748 12.3146 53.4818C16.5808 51.2507 20.8803 48.8168 32.2294 42.2075C49.2937 32.2699 58.7958 26.8706 72.7303 19.1948C73.8566 18.5743 75.0553 17.9213 78.0022 16.3222C93.1457 8.10457 106.687 1.26518 109.98 0.170823C110.609 -0.0381125 111.135 -0.0528103 112.075 0.112609C112.398 0.169537 112.895 0.214007 113.177 0.211026C113.551 0.208046 113.793 0.242032 114.061 0.338005C114.264 0.41073 114.658 0.491262 114.936 0.517193C115.213 0.544018 115.52 0.596162 115.617 0.635803C115.862 0.734757 116.088 1.00781 116.177 1.30781C116.282 1.65414 116.383 1.75773 116.86 1.996C117.33 2.23086 117.428 2.37259 117.428 2.8219C117.429 3.35771 117.015 4.45939 116.588 5.05785C116.474 5.21611 116.276 5.52104 116.146 5.73567C116.018 5.95027 115.734 6.30518 115.518 6.52428C115.303 6.74335 115.071 7.03028 115.004 7.16172C114.935 7.29316 114.696 7.56278 114.47 7.76095C114.243 7.95916 113.781 8.39504 113.443 8.72966C113.106 9.06429 112.422 9.66224 111.925 10.0584C111.112 10.707 107.531 13.3987 105.497 14.8907C104.458 15.653 102.564 17.0478 101.267 18.0062C97.25 20.9744 89.6892 26.6384 87.5986 28.2454C87.2863 28.4856 86.8601 28.8131 86.6516 28.9729C85.976 29.491 85.1497 30.1247 84.5365 30.595C83.7141 31.2259 82.4321 32.221 80.9169 33.4047C80.2165 33.9517 79.4351 34.5621 79.1801 34.7611C78.9236 34.9602 78.4669 35.3218 78.1621 35.5646C77.8572 35.8075 77.0331 36.4605 76.3306 37.0156C75.6279 37.5708 74.7174 38.2947 74.3073 38.6243C73.8971 38.9539 73.1018 39.5927 72.5395 40.0438C71.9773 40.4949 70.9417 41.3323 70.238 41.9048C69.5347 42.4773 68.8627 43.0219 68.7452 43.1149C68.2169 43.5334 64.117 46.9048 64.0806 46.9505C64.0508 46.9713 63.2961 47.6171 62.3759 48.3831C61.4557 49.1491 60.3028 50.1127 59.8137 50.5246C59.3245 50.9365 58.5716 51.5703 58.1406 51.9332C57.7096 52.2961 57.3427 52.6092 57.3254 52.629C57.2955 52.6499 57.0239 52.8904 56.694 53.166C56.3641 53.4414 56.08 53.6833 56.0627 53.7032C56.0269 53.7444 53.983 55.501 53.543 55.869C53.385 56.0022 53.1676 56.1868 53.0635 56.279C52.9591 56.3711 52.6753 56.6169 52.4322 56.8251C52.1906 57.0335 51.9764 57.2183 51.9588 57.2361C51.929 57.2539 51.6005 57.5516 51.2011 57.8977C50.802 58.2438 50.461 58.5416 50.4434 58.5595C50.4136 58.5774 49.9578 58.9893 49.4021 59.4747C48.8464 59.9602 48.3611 60.386 48.3232 60.4209C48.2844 60.4558 48.0457 60.6689 47.7894 60.8944C46.7374 61.8216 45.1887 63.2015 44.9895 63.3894C44.9507 63.4258 44.4933 63.8366 43.9725 64.3025C43.4514 64.7684 42.9155 65.2496 42.7815 65.3719C42.6473 65.4941 42.4751 65.6512 42.3981 65.7205C41.8135 66.2486 38.497 69.2877 38.0678 69.6888C37.8411 69.9005 37.4575 70.2581 37.2147 70.4836C31.4613 75.8278 26.3179 80.9463 21.7784 85.8456C21.5219 86.1231 21.2948 86.3646 21.276 86.3819C21.2312 86.4237 19.1345 88.7764 19.0069 88.9297C18.9114 89.0453 18.9146 89.046 19.1085 88.9477C20.8558 88.0547 28.8446 83.1955 32.6091 80.7359C32.7821 80.6224 33.6209 80.0821 34.4715 79.5351C36.0697 78.5075 36.2769 78.3736 38.1334 77.1635C38.7412 76.7674 39.9125 76.0039 40.7363 75.4669C41.5605 74.9299 42.7327 74.1641 43.3415 73.7651C43.9503 73.366 44.9381 72.7187 45.5367 72.3265C46.1354 71.9342 47.0937 71.3038 47.6667 70.9255C48.2397 70.5473 49.1915 69.9221 49.7818 69.5364C50.3721 69.1506 51.3667 68.4991 51.9916 68.0883C54.1371 66.6785 62.7246 61.0882 64.5238 59.9304C64.819 59.7406 66.0407 58.954 67.2389 58.1826C68.4368 57.4111 69.7152 56.5886 70.08 56.3549C70.4445 56.1212 70.9844 55.7742 71.2794 55.5839C72.635 54.7101 78.9041 50.734 81.2548 49.2572C82.0709 48.7446 82.9939 48.1625 83.3065 47.9637C84.0283 47.5047 88.5707 44.6759 91.0088 43.1671C91.5299 42.8448 92.2404 42.4045 92.5876 42.1888C92.9348 41.973 93.7729 41.4559 94.45 41.0398C95.1271 40.6237 96.2494 39.9339 96.9437 39.507C97.6381 39.08 98.5191 38.5406 98.9012 38.3081C99.283 38.0756 100.306 37.4515 101.174 36.9214C102.042 36.3912 103.278 35.6394 103.92 35.2505C104.562 34.8615 106.04 33.9671 107.203 33.2628C116.862 27.4153 129.287 20.0824 137.508 15.3771C146.262 10.3669 152.006 7.14082 153.656 6.30725L154.81 5.72475L155.298 5.74258C155.566 5.75152 156.013 5.80273 156.291 5.85519C156.741 5.94043 157.52 5.9858 157.682 5.93632C157.763 5.91248 158.331 6.07439 158.532 6.179C158.618 6.22401 158.868 6.26123 159.086 6.26123C159.304 6.26144 159.578 6.30117 159.693 6.34946C159.941 6.45288 160.215 6.78733 160.262 7.04402C160.306 7.29975 160.521 7.50185 160.94 7.69019C161.501 7.94174 161.625 8.34324 161.382 9.13206C161.251 9.5618 160.776 10.5856 160.683 10.6431C160.651 10.6639 160.481 10.9147 160.308 11.1999C159.984 11.736 159.852 11.8794 159.418 12.1663C159.212 12.3016 159.162 12.3724 159.162 12.5265C159.162 12.6749 159.096 12.7765 158.872 12.9754C158.714 13.117 158.28 13.5318 157.91 13.8974C157.082 14.7147 156.859 14.8728 151.048 18.7735C141.417 25.2376 132.233 31.8062 124.022 38.1017C121.51 40.0273 116.77 43.777 114.026 46.0087C112.727 47.0647 108.996 50.1295 108.775 50.3216C108.65 50.4295 108.48 50.5749 108.397 50.6447C107.628 51.2809 106.28 52.4118 106.255 52.4415C106.225 52.4623 105.868 52.7751 105.434 53.1375C105 53.4998 104.56 53.871 104.455 53.9625C104.115 54.2608 103.337 54.9284 103.041 55.1762C102.883 55.3094 102.665 55.494 102.561 55.5863C102.456 55.6784 102.173 55.9244 101.93 56.1326C101.685 56.3409 101.474 56.5252 101.456 56.5426C101.427 56.5605 101.227 56.7444 100.983 56.9526C100.44 57.418 100.259 57.5751 99.8111 57.9688C99.6172 58.1387 99.1814 58.5187 98.8407 58.8136C98.5001 59.1087 98.1586 59.4068 98.0819 59.4762C98.0044 59.5456 97.7473 59.7727 97.5081 59.9808C97.2695 60.1889 96.1493 61.1813 95.0194 62.1858C93.2068 63.7973 92.6667 64.2801 92.4033 64.5255C92.3646 64.5616 92.0349 64.859 91.6704 65.1866C91.3056 65.5142 90.9933 65.797 90.9757 65.8151C90.9459 65.833 90.7878 65.9901 90.5963 66.1635C90.4054 66.3369 89.9664 66.7344 89.6216 67.0467C89.2771 67.3589 88.9495 67.6572 88.8937 67.7092C88.8371 67.7614 88.3252 68.2296 87.7537 68.75C87.1822 69.2704 86.7002 69.7117 86.6829 69.7307C86.653 69.7486 86.0829 70.288 85.3885 70.927C84.6941 71.5659 83.9409 72.2625 83.7154 72.4749C83.4887 72.6874 83.0643 73.0859 82.7702 73.3607C82.2011 73.8924 81.1169 74.9102 81.0629 74.9637C81.0331 74.9816 80.7737 75.2361 80.4632 75.53C79.0076 76.9008 76.0049 79.7811 74.3775 81.3677C71.2489 84.418 65.0184 90.6937 63.4485 92.3765C63.3024 92.5326 62.9805 92.8742 62.7323 93.1354C62.1746 93.7226 60.8197 95.1707 60.3183 95.7159C60.1125 95.9392 59.9024 96.1673 59.8504 96.2231C59.7997 96.2788 59.5 96.6071 59.1874 96.9526C58.8751 97.2981 58.589 97.6092 58.5517 97.6441C58.4861 97.704 57.0304 99.3462 56.8287 99.5858C56.5513 99.9152 61.7431 97.2648 71.8776 91.9027C73.3362 91.1311 75.41 90.0386 76.4865 89.4749C77.5629 88.9112 78.8129 88.2565 79.2642 88.0201C100.623 76.8328 116.517 70.3437 125.479 69.152C126.677 68.9928 128.623 68.9616 129.552 69.0871C129.882 69.1315 130.379 69.1794 130.656 69.1931C131.528 69.2366 131.964 69.2946 132.55 69.4436C132.863 69.5232 133.284 69.6078 133.485 69.6314C134.814 69.7884 135.943 70.3974 136.522 71.2686C136.647 71.4558 136.887 71.7111 137.057 71.8356C137.911 72.4623 138.268 73.2052 138.273 74.3668C138.275 75.0565 138.195 75.5282 137.916 76.4447C137.576 77.5649 136.991 78.8662 136.227 80.2004C135.628 81.2481 133.757 84.0324 132.785 85.3241C131.1 87.5627 127.676 91.7292 125.098 94.6792C124.916 94.8872 124.448 95.4268 124.057 95.8778C123.222 96.8415 122.745 97.3891 122.354 97.8342C121.637 98.6487 121.342 98.9896 121.123 99.2529C120.995 99.4091 120.869 99.551 120.845 99.5684C120.816 99.5863 120.648 99.7845 120.459 100.01C120.268 100.236 120.098 100.434 120.08 100.452C120.051 100.481 119.15 101.532 118.027 102.849C116.139 105.064 114.56 107.082 113.191 109.032C110.918 112.267 109.872 114.85 110.009 116.886C110.06 117.638 110.183 118.094 110.514 118.779C110.737 119.242 110.845 119.388 111.094 119.571C112.099 120.309 113.584 121 115.29 121.523C118.061 122.373 120.265 122.742 129.424 123.889C133.711 124.426 135.528 124.709 138.517 125.308C140.652 125.735 141.868 126.018 143.107 126.376C146.797 127.441 149.402 128.808 151.013 130.522C151.236 130.76 151.764 131.312 152.186 131.749C153.752 133.372 154.469 134.878 154.8 137.232C154.895 137.906 154.833 139.934 154.689 140.861C154.205 143.99 152.7 148.527 150.212 154.36C149.709 155.54 149.097 157.03 148.855 157.672C148.385 158.914 147.855 160.15 147.571 160.669C147.166 161.409 146.036 163.026 145.146 164.139C144.084 165.469 143.594 166 143.431 166C143.372 166 143.261 165.915 143.19 165.812L143.187 165.81Z" fill="black"/>
</svg>
